# xmcd
#
# Track frame offsets:
#	187
#	17227
#	26890
#	38017
#	52055
#	56205
#	60860
#	83137
#	93165
#	102662
#	107837
#	116570
#	123137
#	134187
#	155972
#	166152
#	176390
#	184647
#	199475
#	213050
#	222460
#	234347
#
# Disc length: 3259 seconds
#
# Revision: 1
# Processed by: cddbd v1.5.1PL0 Copyright (c) Steve Scherf et al.
# Submitted via: CDex 1.50Beta5
#
DISCID=3d0cb916
DTITLE=真柴摩利 - 機動戦士ガンダム0083 CDシネマ2 宇宙の蜉蝣
DYEAR=1900
DGENRE=
TTITLE0=ソーラ・レイ 0079
TTITLE1=シーマ・ガラハウ
TTITLE2=茨の園
TTITLE3=MAU"CIMA"0078
TTITLE4=MS-14Fs
TTITLE5=暗礁戦域
TTITLE6=True Shining
TTITLE7=コウ・ウラキ
TTITLE8=蜉蝣の記憶
TTITLE9=ソロモンの悪夢
TTITLE10=決行
TTITLE11=白昼夢
TTITLE12=コロニージャック
TTITLE13=Evergreen
TTITLE14=侵攻
TTITLE15=RX-78GP03
TTITLE16=叛逆
TTITLE17=カラマ・ポイント 0080
TTITLE18=凶弾
TTITLE19=絶望の宇宙
TTITLE20=玲瓏
TTITLE21=Appendix
EXTD=
EXTT0=
EXTT1=
EXTT2=
EXTT3=
EXTT4=
EXTT5=
EXTT6=
EXTT7=
EXTT8=
EXTT9=
EXTT10=
EXTT11=
EXTT12=
EXTT13=
EXTT14=
EXTT15=
EXTT16=
EXTT17=
EXTT18=
EXTT19=
EXTT20=
EXTT21=
PLAYORDER=
